<svg width="240" height="240" viewBox="0 0 240 240" fill="none" xmlns="http://www.w3.org/2000/svg">
<path d="M166.238 163.747C175.358 163.946 176.867 166.697 177.221 169.022C174.999 186.487 145.441 211.964 103.618 232.731L64.8576 238.87C45.008 242.014 26.3679 228.472 23.2238 208.622L21.9055 200.3C28.1063 204.411 36.7425 207.397 48.4172 207.121C88.968 200.613 126.897 167.102 166.238 163.747ZM174.467 0.45332C194.317 -2.69056 212.957 10.8526 216.101 30.7023L238.87 174.467C242.014 194.317 228.472 212.957 208.622 216.101L181.434 220.406C184.965 217.107 188.308 213.685 191.377 210.148L191.391 210.132C202.257 197.607 209.657 183.801 210.323 168.806C209.304 145.453 191.187 130.406 164.981 130.807C122.093 132.785 85.1761 164.689 45.7629 174.063C42.7233 173.86 41.0743 173.28 40.3342 172.94C40.561 170.354 43.7214 163.57 51.6721 158.395C79.8859 136.741 108.862 115.311 138.142 95.0979L119.381 68.0412C90.2038 88.261 61.1717 109.507 33.0783 131.21C24.9721 136.614 18.4964 143.433 14.0666 150.812L0.453321 64.8576C-2.69057 45.0079 10.8526 26.3677 30.7023 23.2238L174.467 0.45332ZM154.325 42.7443C149.651 42.3194 145.128 43.7852 140.756 47.1428C136.384 50.5004 133.749 54.5326 132.849 59.2385C132.143 63.97 133.901 69.079 138.122 74.5646C142.259 79.9407 146.666 82.8409 151.34 83.2658C156.124 83.6068 160.701 82.098 165.072 78.7404C169.444 75.3829 172.025 71.3935 172.816 66.7717C173.715 62.0659 172.055 56.9702 167.833 51.4846C163.696 46.1086 159.193 43.195 154.325 42.7443Z" fill="#FF3D00"></path>
</svg>