<svg width="74" height="60" viewBox="0 0 74 60" fill="none" xmlns="http://www.w3.org/2000/svg">
<path d="M74 0V15.5114H68.7021C65.6259 15.5114 63.1193 15.9659 61.1824 16.875C59.3595 17.7841 57.9923 19.4318 57.0808 21.8182C56.1694 24.0909 55.7136 27.2727 55.7136 31.3636V43.8068L50.5866 33.2386C51.3841 32.5568 52.5235 32.0455 54.0046 31.7045C55.4858 31.25 57.1378 31.0227 58.9607 31.0227C62.9484 31.0227 66.3095 32.2727 69.0439 34.7727C71.7783 37.1591 73.1455 40.5682 73.1455 45C73.1455 49.2046 71.8353 52.7841 69.2148 55.7386C66.5943 58.5795 62.8345 60 57.9353 60C54.7452 60 51.7829 59.2614 49.0485 57.7841C46.428 56.3068 44.2633 53.8068 42.5543 50.2841C40.9592 46.7614 40.1617 41.9886 40.1617 35.9659V33.4091C40.1617 25.3409 41.301 18.8636 43.5797 13.9773C45.9723 9.09091 49.3903 5.56819 53.8337 3.4091C58.2771 1.13636 63.746 0 70.2402 0H74ZM33.8383 0V15.5114H28.5404C25.4642 15.5114 22.9577 15.9659 21.0208 16.875C19.1978 17.7841 17.8306 19.4318 16.9192 21.8182C16.0077 24.0909 15.552 27.2727 15.552 31.3636V43.8068L10.4249 33.2386C11.2225 32.5568 12.3618 32.0455 13.843 31.7045C15.3241 31.25 16.9761 31.0227 18.7991 31.0227C22.7868 31.0227 26.1478 32.2727 28.8822 34.7727C31.6166 37.1591 32.9838 40.5682 32.9838 45C32.9838 49.2046 31.6736 52.7841 29.0531 55.7386C26.4326 58.5795 22.6728 60 17.7737 60C14.5835 60 11.6212 59.2614 8.88684 57.7841C6.26636 56.3068 4.10162 53.8068 2.39261 50.2841C0.797537 46.7614 0 41.9886 0 35.9659V33.4091C0 25.3409 1.13934 18.8636 3.41801 13.9773C5.81062 9.09091 9.22864 5.56819 13.6721 3.4091C18.1155 1.13636 23.5843 0 30.0785 0H33.8383Z" fill="white"/>
</svg>
