<svg width="1098" height="240" viewBox="0 0 1098 240" fill="none" xmlns="http://www.w3.org/2000/svg">
<path d="M166.238 163.747C175.358 163.946 176.867 166.697 177.221 169.022C174.999 186.487 145.441 211.964 103.618 232.731L64.8576 238.87C45.008 242.014 26.3679 228.472 23.2238 208.622L21.9055 200.3C28.1063 204.411 36.7425 207.397 48.4172 207.121C88.968 200.613 126.897 167.102 166.238 163.747ZM174.467 0.45332C194.317 -2.69056 212.957 10.8526 216.101 30.7023L238.87 174.467C242.014 194.317 228.472 212.957 208.622 216.101L181.434 220.406C184.965 217.107 188.308 213.685 191.377 210.148L191.391 210.132C202.257 197.607 209.657 183.801 210.323 168.806C209.304 145.453 191.187 130.406 164.981 130.807C122.093 132.785 85.1761 164.689 45.7629 174.063C42.7233 173.86 41.0743 173.28 40.3342 172.94C40.561 170.354 43.7214 163.57 51.6721 158.395C79.8859 136.741 108.862 115.311 138.142 95.0979L119.381 68.0412C90.2038 88.261 61.1717 109.507 33.0783 131.21C24.9721 136.614 18.4964 143.433 14.0666 150.812L0.453321 64.8576C-2.69057 45.0079 10.8526 26.3677 30.7023 23.2238L174.467 0.45332ZM154.325 42.7443C149.651 42.3194 145.128 43.7852 140.756 47.1428C136.384 50.5004 133.749 54.5326 132.849 59.2385C132.143 63.97 133.901 69.079 138.122 74.5646C142.259 79.9407 146.666 82.8409 151.34 83.2658C156.124 83.6068 160.701 82.098 165.072 78.7404C169.444 75.3829 172.025 71.3935 172.816 66.7717C173.715 62.0659 172.055 56.9702 167.833 51.4846C163.696 46.1086 159.193 43.195 154.325 42.7443Z" fill="#FF3D00"/>
<path d="M1085.66 78.2236C1083.68 78.2236 1081.9 77.89 1080.35 77.2229C1078.82 76.5267 1077.54 75.5984 1076.5 74.4381C1075.47 73.2777 1074.67 71.9869 1074.13 70.5655C1073.61 69.1151 1073.35 67.6502 1073.35 66.1707V65.5616C1073.35 64.0531 1073.61 62.5882 1074.13 61.1668C1074.67 59.7454 1075.48 58.4691 1076.55 57.3378C1077.61 56.1774 1078.91 55.2637 1080.44 54.5965C1081.96 53.9293 1083.7 53.5957 1085.66 53.5957C1087.65 53.5957 1089.39 53.9293 1090.89 54.5965C1092.42 55.2637 1093.71 56.1774 1094.78 57.3378C1095.85 58.4691 1096.64 59.7454 1097.16 61.1668C1097.7 62.5882 1097.98 64.0531 1097.98 65.5616V66.1707C1097.98 67.6502 1097.7 69.1151 1097.16 70.5655C1096.64 71.9869 1095.86 73.2777 1094.82 74.4381C1093.79 75.5984 1092.49 76.5267 1090.93 77.2229C1089.41 77.89 1087.65 78.2236 1085.66 78.2236ZM1085.66 76.3091C1087.8 76.3091 1089.62 75.8305 1091.15 74.8732C1092.71 73.9159 1093.89 72.6541 1094.69 71.0876C1095.53 69.5212 1095.95 67.7952 1095.95 65.9097C1095.95 63.9951 1095.53 62.2546 1094.69 60.6882C1093.89 59.0928 1092.71 57.8309 1091.15 56.9026C1089.62 55.9744 1087.8 55.5102 1085.66 55.5102C1083.53 55.5102 1081.7 55.9744 1080.18 56.9026C1078.65 57.8309 1077.47 59.0928 1076.63 60.6882C1075.8 62.2546 1075.38 63.9951 1075.38 65.9097C1075.38 67.7952 1075.8 69.5212 1076.63 71.0876C1077.47 72.6541 1078.65 73.9159 1080.18 74.8732C1081.7 75.8305 1083.53 76.3091 1085.66 76.3091ZM1081.21 72.306V59.0347H1083.24V72.306H1081.21ZM1089.16 72.306L1084.84 66.9975H1087.18L1091.58 72.306H1089.16ZM1082.21 67.6502V65.8226H1085.79C1086.74 65.8226 1087.45 65.6196 1087.91 65.2135C1088.37 64.8074 1088.6 64.1837 1088.6 63.3424C1088.6 62.5012 1088.37 61.892 1087.91 61.5149C1087.45 61.1088 1086.74 60.9058 1085.79 60.9058H1082.21V59.0347H1085.58C1087.16 59.0347 1088.4 59.4118 1089.29 60.1661C1090.21 60.9203 1090.68 61.9791 1090.68 63.3424C1090.68 64.6768 1090.21 65.7356 1089.29 66.5188C1088.4 67.2731 1087.16 67.6502 1085.58 67.6502H1082.21Z" fill="black"/>
<path d="M312.657 180.74V71.3748H344.588V180.74H312.657ZM298.088 94.9242V71.3748H344.588V94.9242H298.088ZM325.03 60.5979C319.043 60.5979 314.586 59.0679 311.659 56.0078C308.865 52.8147 307.468 48.8232 307.468 44.0335C307.468 39.1108 308.865 35.1193 311.659 32.0592C314.586 28.8661 319.043 27.2695 325.03 27.2695C331.017 27.2695 335.408 28.8661 338.202 32.0592C341.129 35.1193 342.592 39.1108 342.592 44.0335C342.592 48.8232 341.129 52.8147 338.202 56.0078C335.408 59.0679 331.017 60.5979 325.03 60.5979Z" fill="#FF3D00"/>
<path d="M360.121 180.74V71.3748H385.466V118.274H383.67C383.67 107.098 385.067 97.7847 387.861 90.334C390.788 82.8834 395.179 77.2954 401.033 73.5701C406.887 69.8447 414.005 67.9821 422.387 67.9821H423.784C436.556 67.9821 446.269 72.1731 452.921 80.555C459.707 88.804 463.099 101.377 463.099 118.274V180.74H431.168V116.478C431.168 110.624 429.438 105.834 425.979 102.109C422.52 98.3834 417.863 96.5207 412.009 96.5207C406.022 96.5207 401.166 98.4499 397.44 102.308C393.848 106.034 392.052 110.956 392.052 117.077V180.74H360.121Z" fill="#FF3D00"/>
<path d="M481.409 180.74V70.3769C481.409 57.7374 485.001 48.3576 492.186 42.2374C499.37 36.1172 509.948 33.0571 523.918 33.0571H537.888V57.0057H522.521C518.928 57.0057 516.134 58.0035 514.139 59.9992C512.143 61.9949 511.145 64.7889 511.145 68.3812V180.74H481.409ZM468.437 96.9199V73.5701H539.484V96.9199H468.437Z" fill="#FF3D00"/>
<path d="M597.691 184.532C588.112 184.532 579.597 183.068 572.146 180.141C564.695 177.081 558.375 172.957 553.187 167.768C548.131 162.579 544.272 156.658 541.611 150.006C538.951 143.22 537.62 136.102 537.62 128.652V124.062C537.62 116.478 538.951 109.293 541.611 102.508C544.405 95.5894 548.397 89.5358 553.586 84.3469C558.908 79.1581 565.294 75.1001 572.745 72.1731C580.195 69.113 588.511 67.5829 597.691 67.5829C607.137 67.5829 615.519 69.113 622.837 72.1731C630.288 75.1001 636.607 79.1581 641.796 84.3469C646.985 89.5358 650.977 95.5894 653.771 102.508C656.565 109.293 657.962 116.478 657.962 124.062V128.652C657.962 136.102 656.631 143.22 653.97 150.006C651.309 156.658 647.384 162.579 642.195 167.768C637.14 172.957 630.886 177.081 623.436 180.141C615.985 183.068 607.403 184.532 597.691 184.532ZM597.691 157.59C603.944 157.59 609.133 156.259 613.258 153.598C617.382 150.937 620.509 147.212 622.637 142.422C624.899 137.632 626.03 132.311 626.03 126.456C626.03 120.203 624.899 114.748 622.637 110.092C620.376 105.302 617.116 101.51 612.858 98.716C608.734 95.922 603.678 94.525 597.691 94.525C591.837 94.525 586.781 95.922 582.524 98.716C578.266 101.51 575.006 105.302 572.745 110.092C570.616 114.748 569.551 120.203 569.551 126.456C569.551 132.311 570.616 137.632 572.745 142.422C574.873 147.212 578.067 150.937 582.324 153.598C586.582 156.259 591.704 157.59 597.691 157.59Z" fill="#FF3D00"/>
<path d="M711.604 184.133C696.037 184.133 683.863 180.939 675.082 174.553C666.301 168.167 661.644 159.186 661.112 147.611H689.451C689.983 151.07 692.046 154.197 695.638 156.991C699.363 159.652 704.885 160.982 712.202 160.982C717.79 160.982 722.381 160.051 725.973 158.188C729.698 156.193 731.561 153.399 731.561 149.806C731.561 146.613 730.164 144.085 727.37 142.223C724.576 140.227 719.587 138.83 712.402 138.032L703.82 137.233C690.649 135.903 680.737 132.244 674.084 126.257C667.565 120.27 664.305 112.619 664.305 103.306C664.305 95.5894 666.235 89.1366 670.093 83.9478C673.951 78.7589 679.273 74.834 686.059 72.1731C692.977 69.5121 700.827 68.1816 709.608 68.1816C723.711 68.1816 735.087 71.3083 743.735 77.5615C752.383 83.6817 756.906 92.5958 757.306 104.304H728.966C728.434 100.712 726.572 97.7182 723.378 95.3233C720.185 92.7954 715.462 91.5315 709.209 91.5315C704.286 91.5315 700.361 92.4628 697.434 94.3255C694.507 96.1881 693.044 98.716 693.044 101.909C693.044 104.969 694.308 107.298 696.835 108.894C699.363 110.491 703.488 111.622 709.209 112.287L717.79 113.085C731.228 114.549 741.672 118.274 749.123 124.261C756.574 130.248 760.299 138.298 760.299 148.409C760.299 155.727 758.303 162.113 754.312 167.568C750.321 172.89 744.666 177.014 737.348 179.942C730.031 182.736 721.449 184.133 711.604 184.133Z" fill="#FF3D00"/>
<path d="M839.758 180.74V148.409H834.37V113.285C834.37 107.697 833.039 103.506 830.378 100.712C827.717 97.9178 823.46 96.5207 817.606 96.5207C814.679 96.5207 810.82 96.5873 806.031 96.7203C801.241 96.8534 796.318 97.0529 791.262 97.319C786.207 97.5851 781.616 97.8512 777.492 98.1173V71.1752C780.552 70.9091 784.144 70.643 788.269 70.3769C792.393 70.1108 796.651 69.9113 801.041 69.7782C805.432 69.6452 809.556 69.5786 813.415 69.5786C824.591 69.5786 833.971 71.1752 841.554 74.3683C849.271 77.5615 855.125 82.4177 859.117 88.937C863.108 95.3233 865.104 103.572 865.104 113.684V180.74H839.758ZM804.833 183.534C796.983 183.534 790.065 182.137 784.078 179.343C778.224 176.549 773.634 172.557 770.307 167.369C766.981 162.047 765.318 155.727 765.318 148.409C765.318 140.426 767.38 133.907 771.505 128.851C775.629 123.662 781.417 119.871 788.868 117.476C796.318 114.948 804.9 113.684 814.612 113.684H837.962V131.446H814.413C808.825 131.446 804.501 132.843 801.44 135.637C798.513 138.298 797.05 141.956 797.05 146.613C797.05 151.004 798.513 154.596 801.44 157.39C804.501 160.051 808.825 161.381 814.413 161.381C818.005 161.381 821.198 160.783 823.992 159.585C826.919 158.255 829.314 156.059 831.177 152.999C833.039 149.939 834.104 145.682 834.37 140.227L841.953 148.21C841.288 155.793 839.426 162.18 836.365 167.369C833.438 172.557 829.314 176.549 823.992 179.343C818.803 182.137 812.417 183.534 804.833 183.534Z" fill="#FF3D00"/>
<path d="M945.913 180.74V148.409H940.525V113.285C940.525 107.697 939.194 103.506 936.533 100.712C933.872 97.9178 929.615 96.5207 923.761 96.5207C920.834 96.5207 916.975 96.5873 912.186 96.7203C907.396 96.8534 902.473 97.0529 897.417 97.319C892.361 97.5851 887.771 97.8512 883.647 98.1173V71.1752C886.707 70.9091 890.299 70.643 894.424 70.3769C898.548 70.1108 902.806 69.9113 907.196 69.7782C911.587 69.6452 915.711 69.5786 919.57 69.5786C930.746 69.5786 940.125 71.1752 947.709 74.3683C955.426 77.5615 961.28 82.4177 965.271 88.937C969.263 95.3233 971.259 103.572 971.259 113.684V180.74H945.913ZM910.988 183.534C903.138 183.534 896.22 182.137 890.233 179.343C884.379 176.549 879.788 172.557 876.462 167.369C873.136 162.047 871.473 155.727 871.473 148.409C871.473 140.426 873.535 133.907 877.66 128.851C881.784 123.662 887.572 119.871 895.022 117.476C902.473 114.948 911.055 113.684 920.767 113.684H944.117V131.446H920.567C914.98 131.446 910.655 132.843 907.595 135.637C904.668 138.298 903.205 141.956 903.205 146.613C903.205 151.004 904.668 154.596 907.595 157.39C910.655 160.051 914.98 161.381 920.567 161.381C924.16 161.381 927.353 160.783 930.147 159.585C933.074 158.255 935.469 156.059 937.332 152.999C939.194 149.939 940.259 145.682 940.525 140.227L948.108 148.21C947.443 155.793 945.58 162.18 942.52 167.369C939.593 172.557 935.469 176.549 930.147 179.343C924.958 182.137 918.572 183.534 910.988 183.534Z" fill="#FF3D00"/>
<path d="M1027.52 184.133C1011.95 184.133 999.78 180.939 990.999 174.553C982.218 168.167 977.561 159.186 977.029 147.611H1005.37C1005.9 151.07 1007.96 154.197 1011.55 156.991C1015.28 159.652 1020.8 160.982 1028.12 160.982C1033.71 160.982 1038.3 160.051 1041.89 158.188C1045.62 156.193 1047.48 153.399 1047.48 149.806C1047.48 146.613 1046.08 144.085 1043.29 142.223C1040.49 140.227 1035.5 138.83 1028.32 138.032L1019.74 137.233C1006.57 135.903 996.654 132.244 990.001 126.257C983.482 120.27 980.222 112.619 980.222 103.306C980.222 95.5894 982.151 89.1366 986.01 83.9478C989.868 78.7589 995.19 74.834 1001.98 72.1731C1008.89 69.5121 1016.74 68.1816 1025.52 68.1816C1039.63 68.1816 1051 71.3083 1059.65 77.5615C1068.3 83.6817 1072.82 92.5958 1073.22 104.304H1044.88C1044.35 100.712 1042.49 97.7182 1039.3 95.3233C1036.1 92.7954 1031.38 91.5315 1025.13 91.5315C1020.2 91.5315 1016.28 92.4628 1013.35 94.3255C1010.42 96.1881 1008.96 98.716 1008.96 101.909C1008.96 104.969 1010.22 107.298 1012.75 108.894C1015.28 110.491 1019.4 111.622 1025.13 112.287L1033.71 113.085C1047.15 114.549 1057.59 118.274 1065.04 124.261C1072.49 130.248 1076.22 138.298 1076.22 148.409C1076.22 155.727 1074.22 162.113 1070.23 167.568C1066.24 172.89 1060.58 177.014 1053.27 179.942C1045.95 182.736 1037.37 184.133 1027.52 184.133Z" fill="#FF3D00"/>
</svg>
